<svg width="624" height="508" viewBox="0 0 624 518" fill="none" xmlns="http://www.w3.org/2000/svg">
<mask id="path-1-inside-1_0_9572" fill="white">
<path d="M561.6 499.2C596.967 452.044 618.252 395.833 622.99 337.079C627.729 278.324 615.726 219.43 588.372 167.215C561.018 115.001 519.433 71.6041 468.432 42.0499C417.431 12.4957 359.101 -2.00638 300.198 0.223286C241.295 2.45295 184.229 21.3231 135.608 54.6483C86.9874 87.9735 48.8017 134.39 25.4735 188.523C2.14537 242.656 -5.37083 302.289 3.79542 360.517C12.9617 418.746 38.4353 473.186 77.2662 517.534L312 312L561.6 499.2Z"/>
</mask>
<g filter="url(#filter0_i_0_9572)">
<path d="M561.6 499.2C596.967 452.044 618.252 395.833 622.99 337.079C627.729 278.324 615.726 219.43 588.372 167.215C561.018 115.001 519.433 71.6041 468.432 42.0499C417.431 12.4957 359.101 -2.00638 300.198 0.223286C241.295 2.45295 184.229 21.3231 135.608 54.6483C86.9874 87.9735 48.8017 134.39 25.4735 188.523C2.14537 242.656 -5.37083 302.289 3.79542 360.517C12.9617 418.746 38.4353 473.186 77.2662 517.534L312 312L561.6 499.2Z" fill="white" fill-opacity="0.2"/>
</g>
<path d="M561.6 499.2C596.967 452.044 618.252 395.833 622.99 337.079C627.729 278.324 615.726 219.43 588.372 167.215C561.018 115.001 519.433 71.6041 468.432 42.0499C417.431 12.4957 359.101 -2.00638 300.198 0.223286C241.295 2.45295 184.229 21.3231 135.608 54.6483C86.9874 87.9735 48.8017 134.39 25.4735 188.523C2.14537 242.656 -5.37083 302.289 3.79542 360.517C12.9617 418.746 38.4353 473.186 77.2662 517.534L312 312L561.6 499.2Z" stroke="url(#paint0_linear_0_9572)" stroke-width="8" mask="url(#path-1-inside-1_0_9572)"/>
<defs>
<filter id="filter0_i_0_9572" x="-0.00012207" y="0" width="624" height="557.534" filterUnits="userSpaceOnUse" color-interpolation-filters="sRGB">
<feFlood flood-opacity="0" result="BackgroundImageFix"/>
<feBlend mode="normal" in="SourceGraphic" in2="BackgroundImageFix" result="shape"/>
<feColorMatrix in="SourceAlpha" type="matrix" values="0 0 0 0 0 0 0 0 0 0 0 0 0 0 0 0 0 0 127 0" result="hardAlpha"/>
<feOffset dy="40"/>
<feGaussianBlur stdDeviation="40"/>
<feComposite in2="hardAlpha" operator="arithmetic" k2="-1" k3="1"/>
<feColorMatrix type="matrix" values="0 0 0 0 0.74902 0 0 0 0 0.921569 0 0 0 0 0.898039 0 0 0 0.5 0"/>
<feBlend mode="normal" in2="shape" result="effect1_innerShadow_0_9572"/>
</filter>
<linearGradient id="paint0_linear_0_9572" x1="312" y1="0" x2="312" y2="624" gradientUnits="userSpaceOnUse">
<stop stop-color="#BFEBE5"/>
<stop offset="1" stop-color="#BFEBE5" stop-opacity="0"/>
</linearGradient>
</defs>
</svg>
